Coordinates
version=1
nRows=17
nColumns=24
inDegrees=yes

Units are S.I. units (second, meters, Newtons, ...)
Angles are in degrees.

endheader
time	pelvis_tilt	pelvis_list	pelvis_rotation	pelvis_tx	pelvis_ty	pelvis_tz	hip_flexion_r	hip_adduction_r	hip_rotation_r	knee_angle_r	ankle_angle_r	subtalar_angle_r	mtp_angle_r	hip_flexion_l	hip_adduction_l	hip_rotation_l	knee_angle_l	ankle_angle_l	subtalar_angle_l	mtp_angle_l	lumbar_extension	lumbar_bending	lumbar_rotation
      4.90000000	    -16.76915708	      9.49865252	     -9.52774331	      0.69270739	     -0.02175852	      0.00680191	     19.41976710	    -12.88362280	      0.96286433	    -55.09523988	    -28.72249919	     25.89369007	     40.39644555	     31.22909269	      7.79698778	    -13.65134395	    -15.88811052	     -7.69838999	      2.21775204	     10.07072309	     14.85096033	     -9.43027856	      7.55800794
      4.90500000	    -16.63655986	      9.30296423	     -9.27274416	      0.69864359	     -0.02055036	      0.00622138	     19.81760497	    -12.76809410	      0.87819921	    -55.86098724	    -28.27069744	     25.81650946	     41.47228710	     30.48266227	      7.94141743	    -13.17563565	    -15.51860572	     -7.50368544	      2.18223517	      9.89983949	     14.67152414	     -9.29258953	      7.12358344
      4.91000000	    -16.58114904	      9.17823701	     -9.07451528	      0.70458942	     -0.01953918	      0.00581438	     20.35701007	    -12.68277401	      0.87190037	    -56.68856377	    -27.64153114	     25.85240999	     41.87637168	     29.83527426	      8.07523875	    -12.93342300	    -15.14926923	     -7.30018540	      2.29225987	      9.92098671	     14.62378602	     -9.20183961	      6.80978057
      4.91500000	    -16.47104142	      8.98880645	     -8.77949157	      0.71049877	     -0.01840456	      0.00524153	     20.77118564	    -12.57454924	      0.74338729	    -57.39826307	    -27.14767651	     25.78290956	     42.64468242	     29.10865716	      8.21976685	    -12.43959121	    -14.76817707	     -7.14590282	      2.28621616	      9.76814607	     14.47338978	     -9.08506148	      6.32698253
      4.92000000	    -16.36404346	      8.76682349	     -8.58416311	      0.71639050	     -0.01728269	      0.00474161	     21.19971478	    -12.38395039	      0.70384983	    -58.02518258	    -26.70677379	     25.60762798	     43.81686317	     28.37852781	      8.28440001	    -11.97813915	    -14.39201485	     -6.92633668	      2.18971417	      9.50577042	     14.34844254	     -8.88845732	      6.01004640
      4.92500000	    -16.32632649	      8.61601927	     -8.41151517	      0.72223290	     -0.01632331	      0.00440201	     21.75396495	    -12.22228180	      0.74442718	    -58.72180885	    -26.06543239	     25.59179890	     44.06557499	     27.74083737	      8.35490250	    -11.73240353	    -14.00239201	     -6.76680222	      2.29523332	      9.52442729	     14.32130803	     -8.75848653	      5.74873271
      4.93000000	    -16.19386653	      8.41302575	     -8.11724006	      0.72816292	     -0.01526550	      0.00378224	     22.12134594	    -12.10965965	      0.56188194	    -59.27035563	    -25.60328629	     25.32146951	     45.15406552	     26.97753812	      8.48055399	    -11.16605584	    -13.61737967	     -6.58042752	      2.17541678	      9.21058102	     14.16984498	     -8.61868239	      5.30119663
      4.93500000	    -16.15960739	      8.23434574	     -7.93832918	      0.73394333	     -0.01436433	      0.00342470	     22.66529773	    -11.90950618	      0.58195960	    -59.87520113	    -24.94574261	     25.21622832	     45.34674491	     26.34695280	      8.51221411	    -10.89823520	    -13.23785878	     -6.42600702	      2.27221151	      9.22734663	     14.14043770	     -8.45682752	      5.04590560
      4.94000000	    -16.04527958	      7.96050996	     -7.62119544	      0.73984742	     -0.01335256	      0.00283360	     23.02201839	    -11.70810913	      0.34692723	    -60.35917814	    -24.39296810	     24.85014874	     45.80381649	     25.59949255	      8.54215705	    -10.33056156	    -12.86344867	     -6.24810464	      2.21788729	      9.07410226	     14.00258853	     -8.25013724	      4.56456136
      4.94500000	    -15.97410701	      7.80014914	     -7.39472957	      0.74562425	     -0.01250953	      0.00240453	     23.51221520	    -11.56822624	      0.26153641	    -60.87881853	    -23.74552555	     24.52023779	     46.05925711	     24.92929249	      8.61069690	     -9.99372871	    -12.48211143	     -6.10352387	      2.28245915	      9.02119185	     13.93592352	     -8.13029503	      4.23995358
      4.95000000	    -15.89436253	      7.58100662	     -7.15538503	      0.75141151	     -0.01165375	      0.00192985	     23.95595162	    -11.37012264	      0.14049040	    -61.31825481	    -23.09565618	     24.15724652	     46.28628062	     24.24114018	      8.62336229	     -9.60106300	    -12.10598684	     -5.94494994	      2.32250663	      8.96114896	     13.85489491	     -7.94852363	      3.89964498
      4.95500000	    -15.81475828	      7.37175444	     -6.92442259	      0.75717536	     -0.01084812	      0.00146127	     24.40284797	    -11.17857987	      0.02367046	    -61.71731387	    -22.42287536	     23.76951571	     46.45727042	     23.55747155	      8.63343377	     -9.23552272	    -11.72901889	     -5.79222767	      2.37387027	      8.91286994	     13.77837713	     -7.77288047	      3.57700718
      4.96000000	    -15.73386434	      7.15801467	     -6.69339734	      0.76292791	     -0.01008289	      0.00097938	     24.84209324	    -10.98304993	     -0.10493787	    -62.06939375	    -21.73209165	     23.33178165	     46.56549668	     22.87450665	      8.63105210	     -8.87388899	    -11.35502864	     -5.64037065	      2.43318299	      8.87468833	     13.70107726	     -7.59014622	      3.25659395
      4.96500000	    -15.65256670	      6.94374654	     -6.46408434	      0.76864657	     -0.00936381	      0.00050816	     25.27802476	    -10.78578787	     -0.24383347	    -62.37742577	    -21.02265306	     22.85568109	     46.61120579	     22.19485086	      8.61855131	     -8.52013070	    -10.98190020	     -5.48820221	      2.49689661	      8.84455961	     13.62420814	     -7.40607927	      2.94383397
      4.97000000	    -15.56761820	      6.72426961	     -6.23468269	      0.77434981	     -0.00868344	      0.00002947	     25.70268150	    -10.58459665	     -0.39631048	    -62.63678166	    -20.29962906	     22.34243957	     46.59638470	     21.51424570	      8.59410485	     -8.16294696	    -10.61339849	     -5.33581226	      2.55854351	      8.81409545	     13.54363921	     -7.21590580	      2.63162461
      4.97500000	    -15.48504222	      6.50877124	     -6.01104480	      0.78002142	     -0.00805709	     -0.00044095	     26.12985792	    -10.38701638	     -0.55566159	    -62.85235036	    -19.56669276	     21.80118772	     46.52935460	     20.84239491	      8.56314488	     -7.81638557	    -10.24987207	     -5.18353339	      2.61842967	      8.78535086	     13.46701605	     -7.02731245	      2.33333169
      4.98000000	    -15.39978730	      6.28786726	     -5.78709162	      0.78567515	     -0.00746987	     -0.00091361	     26.54604273	    -10.18549614	     -0.72773412	    -63.01826181	    -18.82949683	     21.23355549	     46.40915062	     20.17283132	      8.51985025	     -7.46482964	     -9.89375339	     -5.02925793	      2.67085900	      8.75072878	     13.38643835	     -6.83181340	      2.03370182
